<svg width="30" height="32" viewBox="0 0 30 32" fill="none" xmlns="http://www.w3.org/2000/svg">
<path d="M11.875 18.3337C11.875 19.627 12.8125 20.667 13.9625 20.667H16.3125C17.3125 20.667 18.125 19.7603 18.125 18.627C18.125 17.4137 17.625 16.9737 16.8875 16.6937L13.125 15.2937C12.3875 15.0137 11.8875 14.587 11.8875 13.3603C11.8875 12.2403 12.7 11.3203 13.7 11.3203H16.05C17.2 11.3203 18.1375 12.3603 18.1375 13.6537" stroke="white" stroke-width="2" stroke-linecap="round" stroke-linejoin="round"/>
<path d="M15 10V22" stroke="white" stroke-width="2" stroke-linecap="round" stroke-linejoin="round"/>
<path d="M27.5 15.9993C27.5 23.3593 21.9 29.3327 15 29.3327C8.1 29.3327 2.5 23.3593 2.5 15.9993C2.5 8.63935 8.1 2.66602 15 2.66602" stroke="white" stroke-width="2" stroke-linecap="round" stroke-linejoin="round"/>
<path d="M27.5 7.99935V2.66602H22.5" stroke="white" stroke-width="2" stroke-linecap="round" stroke-linejoin="round"/>
<path d="M21.25 9.33268L27.5 2.66602" stroke="white" stroke-width="2" stroke-linecap="round" stroke-linejoin="round"/>
</svg>
