<svg width="30" height="30" viewBox="0 0 30 30" fill="none" xmlns="http://www.w3.org/2000/svg">
<path d="M25.908 8.18146V21.8178C25.908 27.2724 24.5444 28.636 19.0898 28.636H10.908C5.45348 28.636 4.08984 27.2724 4.08984 21.8178V8.18146C4.08984 2.72692 5.45348 1.36328 10.908 1.36328H19.0898C24.5444 1.36328 25.908 2.72692 25.908 8.18146Z" stroke="white" stroke-width="2.04545" stroke-linecap="round" stroke-linejoin="round"/>
<path d="M17.728 6.13672H12.2734" stroke="white" stroke-width="2.04545" stroke-linecap="round" stroke-linejoin="round"/>
<path d="M15.0004 24.6824C16.1677 24.6824 17.1141 23.736 17.1141 22.5687C17.1141 21.4014 16.1677 20.4551 15.0004 20.4551C13.833 20.4551 12.8867 21.4014 12.8867 22.5687C12.8867 23.736 13.833 24.6824 15.0004 24.6824Z" stroke="white" stroke-width="2.04545" stroke-linecap="round" stroke-linejoin="round"/>
</svg>
