<svg width="30" height="31" viewBox="0 0 30 31" fill="none" xmlns="http://www.w3.org/2000/svg">
<path fill-rule="evenodd" clip-rule="evenodd" d="M14.935 2.0625H15.065C16.1881 2.06246 17.1246 2.06244 17.8681 2.16239C18.6529 2.2679 19.3614 2.49999 19.9306 3.06933C20.5 3.63866 20.7321 4.34716 20.8376 5.1319C20.9115 5.6814 20.9307 6.33636 20.9357 7.09416C21.7464 7.12018 22.469 7.16758 23.1112 7.25393C24.5767 7.45095 25.763 7.8661 26.6985 8.80155C27.6339 9.73701 28.049 10.9232 28.2461 12.3887C28.4375 13.8128 28.4375 15.6323 28.4375 17.9295V18.0705C28.4375 20.3678 28.4375 22.1873 28.2461 23.6113C28.049 25.0768 27.6339 26.263 26.6985 27.1985C25.763 28.1339 24.5767 28.549 23.1112 28.7461C21.6872 28.9375 19.8677 28.9375 17.5705 28.9375H12.4295C10.1323 28.9375 8.31274 28.9375 6.88873 28.7461C5.4232 28.549 4.23701 28.1339 3.30155 27.1985C2.3661 26.263 1.95095 25.0768 1.75393 23.6113C1.56246 22.1873 1.56248 20.3678 1.5625 18.0705V17.9295C1.56248 15.6323 1.56246 13.8128 1.75393 12.3887C1.95095 10.9232 2.3661 9.73701 3.30155 8.80155C4.23701 7.8661 5.4232 7.45095 6.88873 7.25393C7.53094 7.16758 8.2536 7.12018 9.06425 7.09416C9.06925 6.33636 9.08851 5.6814 9.16239 5.1319C9.2679 4.34716 9.49999 3.63866 10.0693 3.06933C10.6387 2.49999 11.3472 2.2679 12.1319 2.16239C12.8754 2.06244 13.8119 2.06246 14.935 2.0625ZM10.9397 7.06473C11.4124 7.06249 11.9087 7.0625 12.4295 7.0625H17.5705C18.0914 7.0625 18.5876 7.06249 19.0602 7.06473C19.055 6.35183 19.0375 5.81406 18.9794 5.38174C18.9017 4.80491 18.7677 4.55805 18.6049 4.39515C18.442 4.23225 18.1951 4.09823 17.6182 4.02068C17.0145 3.9395 16.205 3.9375 15 3.9375C13.795 3.9375 12.9855 3.9395 12.3817 4.02068C11.8049 4.09823 11.558 4.23225 11.3952 4.39515C11.2323 4.55805 11.0982 4.80491 11.0207 5.38174C10.9625 5.81406 10.945 6.35183 10.9397 7.06473ZM7.13856 9.1122C5.88095 9.28129 5.15639 9.59838 4.62738 10.1274C4.09836 10.6564 3.78128 11.381 3.6122 12.6386C3.43949 13.9231 3.4375 15.6165 3.4375 18C3.4375 20.3835 3.43949 22.0769 3.6122 23.3615C3.78128 24.619 4.09836 25.3436 4.62738 25.8726C5.15639 26.4016 5.88095 26.7188 7.13856 26.8878C8.42314 27.0605 10.1165 27.0625 12.5 27.0625H17.5C19.8835 27.0625 21.5769 27.0605 22.8615 26.8878C24.119 26.7188 24.8436 26.4016 25.3726 25.8726C25.9016 25.3436 26.2187 24.619 26.3877 23.3615C26.5605 22.0769 26.5625 20.3835 26.5625 18C26.5625 15.6165 26.5605 13.9231 26.3877 12.6386C26.2187 11.381 25.9016 10.6564 25.3726 10.1274C24.8436 9.59838 24.119 9.28129 22.8615 9.1122C21.5769 8.9395 19.8835 8.9375 17.5 8.9375H12.5C10.1165 8.9375 8.42314 8.9395 7.13856 9.1122ZM15 12.0625C15.5177 12.0625 15.9375 12.4822 15.9375 13V13.0128C17.2985 13.3556 18.4375 14.4288 18.4375 15.9166C18.4375 16.4344 18.0177 16.8541 17.5 16.8541C16.9822 16.8541 16.5625 16.4344 16.5625 15.9166C16.5625 15.4366 16.0302 14.7709 15 14.7709C13.9697 14.7709 13.4375 15.4366 13.4375 15.9166C13.4375 16.3968 13.9697 17.0625 15 17.0625C16.7311 17.0625 18.4375 18.2623 18.4375 20.0834C18.4375 21.5713 17.2985 22.6444 15.9375 22.9873V23C15.9375 23.5178 15.5177 23.9375 15 23.9375C14.4822 23.9375 14.0625 23.5178 14.0625 23V22.9873C12.7015 22.6444 11.5625 21.5713 11.5625 20.0834C11.5625 19.5656 11.9822 19.1459 12.5 19.1459C13.0177 19.1459 13.4375 19.5656 13.4375 20.0834C13.4375 20.5634 13.9697 21.2291 15 21.2291C16.0302 21.2291 16.5625 20.5634 16.5625 20.0834C16.5625 19.6033 16.0302 18.9375 15 18.9375C13.2689 18.9375 11.5625 17.7379 11.5625 15.9166C11.5625 14.4288 12.7015 13.3556 14.0625 13.0128V13C14.0625 12.4822 14.4822 12.0625 15 12.0625Z" fill="white"/>
</svg>
