<svg width="30" height="31" viewBox="0 0 30 31" fill="none" xmlns="http://www.w3.org/2000/svg">
<path fill-rule="evenodd" clip-rule="evenodd" d="M13.6814 2.0625H16.3186C18.0281 2.06248 19.406 2.06245 20.4897 2.20815C21.6149 2.35943 22.5621 2.68304 23.3146 3.43544C23.6876 3.80853 23.9552 4.22954 24.1487 4.6964C25.3139 4.84235 26.292 5.16293 27.0646 5.9355C27.817 6.6879 28.1406 7.63524 28.2919 8.76038C28.4375 9.84409 28.4375 11.222 28.4375 12.9315V18.0686C28.4375 19.7781 28.4375 21.156 28.2919 22.2397C28.1406 23.3649 27.817 24.3122 27.0646 25.0646C26.292 25.8372 25.3139 26.1577 24.1487 26.3037C23.9552 26.7705 23.6876 27.1915 23.3146 27.5646C22.5621 28.317 21.6149 28.6406 20.4897 28.7919C19.406 28.9375 18.0281 28.9375 16.3186 28.9375H13.6814C11.9719 28.9375 10.594 28.9375 9.51031 28.7919C8.38518 28.6406 7.43784 28.317 6.68544 27.5646C6.31239 27.1915 6.04475 26.7705 5.85126 26.3037C4.68618 26.1577 3.70804 25.8372 2.93544 25.0646C2.18304 24.3122 1.85943 23.3649 1.70815 22.2397C1.56245 21.156 1.56248 19.7781 1.5625 18.0686V12.9315C1.56248 11.222 1.56245 9.84409 1.70815 8.76038C1.85943 7.63524 2.18304 6.6879 2.93544 5.9355C3.70803 5.16293 4.68615 4.84235 5.8512 4.6964C6.0447 4.22954 6.31235 3.80853 6.68544 3.43544C7.43784 2.68304 8.38518 2.35943 9.51031 2.20815C10.594 2.06245 11.9719 2.06248 13.6814 2.0625ZM5.41055 6.67559C4.86353 6.80741 4.5225 7.00009 4.26126 7.26132C3.91531 7.60729 3.68975 8.093 3.56644 9.01021C3.43949 9.9544 3.4375 11.2058 3.4375 13.0001V18.0001C3.4375 19.7944 3.43949 21.0457 3.56644 21.9899C3.68975 22.9071 3.91531 23.3929 4.26126 23.7387C4.52251 24 4.86354 24.1927 5.41056 24.3245C5.31246 23.3105 5.31248 22.0669 5.3125 20.5686V10.4314C5.31248 8.93315 5.31246 7.68961 5.41055 6.67559ZM24.5895 24.3245C25.1365 24.1927 25.4775 24 25.7387 23.7387C26.0847 23.3929 26.3102 22.9071 26.4336 21.9899C26.5605 21.0457 26.5625 19.7944 26.5625 18.0001V13.0001C26.5625 11.2058 26.5605 9.9544 26.4336 9.01021C26.3102 8.093 26.0847 7.60729 25.7387 7.26132C25.4775 7.00009 25.1365 6.80741 24.5895 6.67559C24.6875 7.68961 24.6875 8.93316 24.6875 10.4314V20.5686C24.6875 22.0669 24.6875 23.3105 24.5895 24.3245ZM9.76015 4.06644C8.84294 4.18975 8.35721 4.41531 8.01126 4.76126C7.66531 5.10721 7.43975 5.59294 7.31644 6.51015C7.18949 7.45434 7.1875 8.70572 7.1875 10.5V20.5C7.1875 22.2942 7.18949 23.5456 7.31644 24.4899C7.43975 25.4071 7.66531 25.8927 8.01126 26.2387C8.35721 26.5847 8.84294 26.8102 9.76015 26.9336C10.7043 27.0605 11.9557 27.0625 13.75 27.0625H16.25C18.0443 27.0625 19.2956 27.0605 20.2399 26.9336C21.1571 26.8102 21.6427 26.5847 21.9887 26.2387C22.3347 25.8927 22.5602 25.4071 22.6836 24.4899C22.8105 23.5456 22.8125 22.2942 22.8125 20.5V10.5C22.8125 8.70574 22.8105 7.45434 22.6836 6.51015C22.5602 5.59294 22.3347 5.10721 21.9887 4.76126C21.6427 4.41531 21.1571 4.18975 20.2399 4.06644C19.2956 3.93949 18.0443 3.9375 16.25 3.9375H13.75C11.9557 3.9375 10.7043 3.93949 9.76015 4.06644ZM10.3125 11.75C10.3125 11.2322 10.7322 10.8125 11.25 10.8125H18.75C19.2677 10.8125 19.6875 11.2322 19.6875 11.75C19.6875 12.2678 19.2677 12.6875 18.75 12.6875H11.25C10.7322 12.6875 10.3125 12.2678 10.3125 11.75ZM10.3125 16.75C10.3125 16.2323 10.7322 15.8125 11.25 15.8125H18.75C19.2677 15.8125 19.6875 16.2323 19.6875 16.75C19.6875 17.2677 19.2677 17.6875 18.75 17.6875H11.25C10.7322 17.6875 10.3125 17.2677 10.3125 16.75ZM10.3125 21.75C10.3125 21.2323 10.7322 20.8125 11.25 20.8125H15C15.5177 20.8125 15.9375 21.2323 15.9375 21.75C15.9375 22.2677 15.5177 22.6875 15 22.6875H11.25C10.7322 22.6875 10.3125 22.2677 10.3125 21.75Z" fill="white"/>
</svg>
