<svg width="30" height="31" viewBox="0 0 30 31" fill="none" xmlns="http://www.w3.org/2000/svg">
<path fill-rule="evenodd" clip-rule="evenodd" d="M12.4295 4.5625H17.5705C19.8678 4.56248 21.6872 4.56246 23.1112 4.75393C24.5767 4.95095 25.763 5.3661 26.6985 6.30155C27.6339 7.23701 28.049 8.4232 28.2461 9.88873C28.3591 10.7298 28.4055 11.7089 28.4244 12.8428C28.433 12.8939 28.4375 12.9465 28.4375 13C28.4375 13.0441 28.4345 13.0874 28.4286 13.1299C28.4375 13.837 28.4375 14.6022 28.4375 15.4295V15.5705C28.4375 17.8677 28.4375 19.6872 28.2461 21.1112C28.049 22.5767 27.6339 23.763 26.6985 24.6985C25.763 25.6339 24.5767 26.049 23.1112 26.2461C21.6872 26.4375 19.8678 26.4375 17.5705 26.4375H12.4295C10.1323 26.4375 8.31274 26.4375 6.88873 26.2461C5.4232 26.049 4.23701 25.6339 3.30155 24.6985C2.3661 23.763 1.95095 22.5767 1.75393 21.1112C1.56246 19.6872 1.56248 17.8677 1.5625 15.5705V15.4295C1.56249 14.6022 1.56249 13.837 1.57143 13.1299C1.56554 13.0874 1.5625 13.044 1.5625 13C1.5625 12.9465 1.56699 12.894 1.57561 12.8429C1.59455 11.7089 1.64084 10.7298 1.75393 9.88873C1.95095 8.4232 2.3661 7.23701 3.30155 6.30155C4.23701 5.3661 5.4232 4.95095 6.88873 4.75393C8.31274 4.56246 10.1323 4.56248 12.4295 4.5625ZM3.43999 13.9375C3.43761 14.423 3.4375 14.9426 3.4375 15.5C3.4375 17.8835 3.43949 19.5769 3.6122 20.8615C3.78128 22.119 4.09836 22.8436 4.62738 23.3726C5.15639 23.9016 5.88095 24.2188 7.13856 24.3877C8.42314 24.5605 10.1165 24.5625 12.5 24.5625H17.5C19.8835 24.5625 21.5769 24.5605 22.8615 24.3877C24.119 24.2188 24.8436 23.9016 25.3726 23.3726C25.9016 22.8436 26.2187 22.119 26.3877 20.8615C26.5605 19.5769 26.5625 17.8835 26.5625 15.5C26.5625 14.9426 26.5624 14.423 26.56 13.9375H3.43999ZM26.5299 12.0625H3.47009C3.49455 11.3291 3.53734 10.6954 3.6122 10.1386C3.78128 8.88095 4.09836 8.15639 4.62738 7.62738C5.15639 7.09836 5.88095 6.78128 7.13856 6.6122C8.42314 6.43949 10.1165 6.4375 12.5 6.4375H17.5C19.8835 6.4375 21.5769 6.43949 22.8615 6.6122C24.119 6.78128 24.8436 7.09836 25.3726 7.62738C25.9016 8.15639 26.2187 8.88095 26.3877 10.1386C26.4626 10.6954 26.5055 11.3291 26.5299 12.0625ZM6.5625 20.5C6.5625 19.9822 6.98224 19.5625 7.5 19.5625H12.5C13.0177 19.5625 13.4375 19.9822 13.4375 20.5C13.4375 21.0177 13.0177 21.4375 12.5 21.4375H7.5C6.98224 21.4375 6.5625 21.0177 6.5625 20.5ZM14.6875 20.5C14.6875 19.9822 15.1073 19.5625 15.625 19.5625H17.5C18.0177 19.5625 18.4375 19.9822 18.4375 20.5C18.4375 21.0177 18.0177 21.4375 17.5 21.4375H15.625C15.1073 21.4375 14.6875 21.0177 14.6875 20.5Z" fill="white"/>
</svg>
