<svg width="30" height="30" viewBox="0 0 30 30" fill="none" xmlns="http://www.w3.org/2000/svg">
<path d="M15.3125 12.4998C16.4602 12.4998 17.4015 13.3837 17.4927 14.5079L17.5 14.6872V25.3125C17.5 26.4602 16.6161 27.4015 15.4919 27.4927L15.3125 27.5H4.6875C3.53979 27.5 2.59851 26.6161 2.50725 25.4919L2.5 25.3125V14.6872C2.5 13.5396 3.38389 12.5984 4.50809 12.507L4.6875 12.4998H15.3125ZM9.375 14.3737L4.6875 14.3747C4.53956 14.3747 4.41564 14.4776 4.38325 14.6156L4.375 14.6872V25.3125C4.375 25.4604 4.47779 25.5844 4.61585 25.6167L4.6875 25.625L9.375 25.6237V14.3737ZM15.3125 14.3747L10.625 14.3737V25.6237L15.3125 25.625C15.4604 25.625 15.5844 25.5222 15.6167 25.3841L15.625 25.3125V14.6872C15.625 14.5394 15.5222 14.4155 15.3841 14.383L15.3125 14.3747ZM13.2812 22.5C13.799 22.5 14.2187 22.9197 14.2187 23.4375C14.2187 23.9121 13.866 24.3044 13.4085 24.3665L13.2812 24.375H12.6562C12.1385 24.375 11.7187 23.9552 11.7187 23.4375C11.7187 22.9629 12.0714 22.5706 12.529 22.5085L12.6562 22.5H13.2812ZM7.34375 22.5C7.86151 22.5 8.28125 22.9197 8.28125 23.4375C8.28125 23.9121 7.92856 24.3044 7.47096 24.3665L7.34375 24.375H6.71875C6.20099 24.375 5.78125 23.9552 5.78125 23.4375C5.78125 22.9629 6.13394 22.5706 6.59154 22.5085L6.71875 22.5H7.34375ZM24.6875 2.5C26.1761 2.5 27.3945 3.65645 27.4935 5.11994L27.5 5.3125V16.5625C27.5 18.0511 26.3435 19.2695 24.88 19.3685L24.6875 19.375H21.255V21.875H22.8125C23.3302 21.875 23.75 22.2947 23.75 22.8125C23.75 23.2871 23.3972 23.6794 22.9397 23.7415L22.8125 23.75H18.75V21.875H19.38V19.375H18.75V17.5H24.6875C25.1621 17.5 25.5544 17.1472 25.6165 16.6897L25.625 16.5625V5.3125C25.625 4.79474 25.2052 4.375 24.6875 4.375H7.8125C7.33787 4.375 6.94564 4.72769 6.88356 5.18529L6.875 5.3125V11.25H5V5.3125C5 3.82392 6.15645 2.60545 7.61994 2.50649L7.8125 2.5H24.6875Z" fill="white"/>
</svg>
