<svg width="52" height="52" viewBox="0 0 52 52" fill="none" xmlns="http://www.w3.org/2000/svg">
<path d="M0 26C0 11.6406 11.6406 0 26 0C40.3594 0 52 11.6406 52 26C52 40.3594 40.3594 52 26 52C11.6406 52 0 40.3594 0 26Z" fill="#A2FF76"/>
<path fill-rule="evenodd" clip-rule="evenodd" d="M26 16.75C20.8914 16.75 16.75 20.8914 16.75 26C16.75 31.1086 20.8914 35.25 26 35.25C31.1086 35.25 35.25 31.1086 35.25 26C35.25 20.8914 31.1086 16.75 26 16.75ZM15.25 26C15.25 20.0629 20.0629 15.25 26 15.25C31.9371 15.25 36.75 20.0629 36.75 26C36.75 31.9371 31.9371 36.75 26 36.75C20.0629 36.75 15.25 31.9371 15.25 26Z" fill="#0A1519"/>
<path fill-rule="evenodd" clip-rule="evenodd" d="M26 30.25C26.4142 30.25 26.75 30.5858 26.75 31V32C26.75 32.4142 26.4142 32.75 26 32.75C25.5858 32.75 25.25 32.4142 25.25 32V31C25.25 30.5858 25.5858 30.25 26 30.25Z" fill="#0A1519"/>
<path fill-rule="evenodd" clip-rule="evenodd" d="M26 19.25C26.4142 19.25 26.75 19.5858 26.75 20V21C26.75 21.4142 26.4142 21.75 26 21.75C25.5858 21.75 25.25 21.4142 25.25 21V20C25.25 19.5858 25.5858 19.25 26 19.25Z" fill="#0A1519"/>
<path fill-rule="evenodd" clip-rule="evenodd" d="M22.25 23.5C22.25 21.5829 24.0627 20.25 26 20.25C27.9373 20.25 29.75 21.5829 29.75 23.5C29.75 23.9142 29.4142 24.25 29 24.25C28.5858 24.25 28.25 23.9142 28.25 23.5C28.25 22.6557 27.3765 21.75 26 21.75C24.6235 21.75 23.75 22.6557 23.75 23.5C23.75 24.3443 24.6235 25.25 26 25.25C27.9373 25.25 29.75 26.5829 29.75 28.5C29.75 30.4171 27.9373 31.75 26 31.75C24.0627 31.75 22.25 30.4171 22.25 28.5C22.25 28.0858 22.5858 27.75 23 27.75C23.4142 27.75 23.75 28.0858 23.75 28.5C23.75 29.3443 24.6235 30.25 26 30.25C27.3765 30.25 28.25 29.3443 28.25 28.5C28.25 27.6557 27.3765 26.75 26 26.75C24.0627 26.75 22.25 25.4171 22.25 23.5Z" fill="#0A1519"/>
</svg>
