<svg width="42" height="44" viewBox="0 0 42 44" fill="none" xmlns="http://www.w3.org/2000/svg">
<path opacity="0.7" d="M12.6733 20.1838C13.4582 17.1357 16.4687 14.0025 19.3975 13.1856L37.657 8.09285C40.5858 7.27598 42.3238 9.08479 41.5389 12.1329L36.6456 31.1365C35.8607 34.1846 32.8501 37.3178 29.9213 38.1347L11.6619 43.2275C8.73306 44.0443 6.99508 42.2355 7.77997 39.1874L12.6733 20.1838Z" fill="#4D9472"/>
<path d="M5.35386 12.5661C6.13875 9.51798 9.14929 6.38476 12.0781 5.56789L30.3376 0.475135C33.2664 -0.341737 35.0044 1.46707 34.2195 4.51522L29.3261 23.5188C28.5412 26.5669 25.5307 29.7001 22.6019 30.517L4.34241 35.6097C1.41361 36.4266 -0.324381 34.6178 0.460508 31.5697L5.35386 12.5661Z" fill="#209C60"/>
</svg>
