<svg width="24" height="25" viewBox="0 0 24 25" fill="none" xmlns="http://www.w3.org/2000/svg">
<rect y="0.5" width="24" height="24" rx="12" fill="#1D9B5E"/>
<path fill-rule="evenodd" clip-rule="evenodd" d="M8.67257 10.4391C8.52285 10.207 8.58955 9.89761 8.82157 9.74787L12.7825 7.19179C13.0145 7.04206 13.3239 7.10876 13.4737 7.34079L16.0298 11.3017C16.1795 11.5337 16.1128 11.8431 15.8808 11.9929C15.6487 12.1426 15.3393 12.0759 15.1896 11.8439L13.288 8.89727L12.1375 14.2342C12.0373 14.6991 12.0282 15.4382 12.3197 16.1058C12.5986 16.7446 13.1661 17.3544 14.3102 17.601C14.5802 17.6592 14.7518 17.9252 14.6936 18.1951C14.6354 18.4651 14.3694 18.6367 14.0995 18.5785C12.6368 18.2632 11.8092 17.4356 11.4032 16.506C11.0099 15.6052 11.0261 14.6448 11.16 14.0235L12.3104 8.68655L9.3638 10.5881C9.13178 10.7378 8.8223 10.6711 8.67257 10.4391Z" fill="white"/>
</svg>
